<?xml version="1.0" standalone="no"?>
<svg xmlns="http://www.w3.org/2000/svg" viewBox="0 0 200 60" width="200" height="60">
  <defs>
    <linearGradient id="shieldGrad" x1="0%" y1="0%" x2="0%" y2="100%">
      <stop offset="0%" stop-color="#00aeff"/>
      <stop offset="100%" stop-color="#0043ff"/>
    </linearGradient>
    <linearGradient id="textGrad" x1="0%" y1="0%" x2="100%" y2="0%">
      <stop offset="0%" stop-color="#0043ff"/>
      <stop offset="100%" stop-color="#00aeff"/>
    </linearGradient>
  </defs>

  <!-- 盾牌图标 -->
  <g transform="translate(8, 6)">
    <path d="M22 2 L38 9 Q38 24 22 42 Q6 24 6 9 Z" fill="url(#shieldGrad)" stroke="none"/>
    <rect x="16" y="20" width="12" height="10" rx="2" fill="#ffffff"/>
    <path d="M19 20 V16 a3 3 0 0 1 6 0 v4" fill="none" stroke="#ffffff" stroke-width="2.5" stroke-linecap="round"/>
    <circle cx="22" cy="24" r="1.2" fill="#0043ff"/>
    <path d="M21.4 24 h1.2 v2 h-1.2 z" fill="#0043ff"/>
    <g transform="translate(26, 30)">
      <path d="M0 0 L6 5 L0 10" fill="none" stroke="#ffffff" stroke-width="2" stroke-linecap="round" stroke-linejoin="round"/>
    </g>
    <circle cx="14" cy="14" r="2" fill="#ffffff"/>
    <circle cx="14" cy="14" r="1" fill="#0043ff"/>
  </g>

  <!-- ZASCA 文字 -->
  <text x="55" y="38" font-family="system-ui, -apple-system, sans-serif" font-size="28" font-weight="bold" fill="url(#textGrad)">ZASCA</text>
</svg>
